<?xml version="1.0" encoding="UTF-8"?>
<!DOCTYPE svg PUBLIC "-//W3C//DTD SVG 1.1//EN" "http://www.w3.org/Graphics/SVG/1.1/DTD/svg11.dtd">
<!-- Creator: CorelDRAW 2017 -->
<svg xmlns="http://www.w3.org/2000/svg" xml:space="preserve" width="24.1381mm" height="8.8258mm" version="1.1" style="shape-rendering:geometricPrecision; text-rendering:geometricPrecision; image-rendering:optimizeQuality; fill-rule:evenodd; clip-rule:evenodd"
viewBox="0 0 3641 1331"
 xmlns:xlink="http://www.w3.org/1999/xlink">
 <defs>
  <style type="text/css">
   <![CDATA[
    .fil0 {fill:#29ABE2}
    .fil2 {fill:#E8F6FC}
    .fil1 {fill:#FEFEFE}
   ]]>
  </style>
 </defs>
 <g id="Capa_x0020_1">
  <metadata id="CorelCorpID_0Corel-Layer"/>
  <polygon class="fil0" points="3641,0 484,0 0,1329 3187,1331 "/>
  <path class="fil1" d="M2526 995l90 0c52,-118 71,-282 126,-391l34 390 84 2c46,-119 131,-439 156,-572 -112,-1 -83,-3 -132,201 -16,67 -31,139 -54,206l-34 -405c-108,-5 -78,-6 -134,193 -20,71 -38,142 -62,212l-21 -405 -84 -3 32 572z"/>
  <path class="fil1" d="M2081 600l91 2c22,-57 14,-108 77,-108 69,0 51,79 44,141 -109,61 -216,76 -245,203 -31,134 88,250 218,88 10,40 -4,37 22,70l75 0c12,-78 49,-456 29,-508 -48,-124 -317,-96 -309,113z"/>
  <path class="fil1" d="M1154 1043c-95,35 -104,-23 -111,84 3,1 9,-1 10,3 2,4 8,3 10,3 63,9 138,-14 171,-76l210 -633 -104 -1 -117 418 -36 -417 -103 -1c16,161 82,478 69,620z"/>
  <path class="fil1" d="M1521 823l-79 19c-11,211 262,204 306,51 59,-209 -210,-215 -162,-380 44,-22 38,-24 93,-13l28 89 66 -25c-21,-276 -372,-129 -276,76 35,75 145,122 163,184 16,56 -11,99 -62,101 -71,2 -56,-49 -76,-102z"/>
  <path class="fil1" d="M767 823l-79 19c-12,229 320,209 313,-9 -3,-90 -88,-151 -130,-193 -68,-68 -79,-168 54,-140l28 89 66 -25c-20,-276 -372,-130 -276,76 35,75 145,122 163,184 16,56 -11,100 -62,101 -70,2 -56,-49 -76,-102z"/>
  <polygon class="fil1" points="1829,994 1927,995 2015,195 1911,198 "/>
  <path class="fil2" d="M357 1076l634 6c-14,-12 -9,-20 -70,-24 -19,-1 -56,1 -77,2l-458 0 243 -765 1132 -3c27,-5 12,-1 25,-9 -50,-27 -1026,-13 -1168,-9l-261 801z"/>
  <path class="fil2" d="M2114 284c42,27 1012,9 1155,11l-243 765 19 22c30,-184 246,-672 245,-806 -120,-9 -1139,-13 -1177,7z"/>
  <path class="fil0" d="M2164 905c120,31 114,-102 121,-198 -75,25 -174,96 -121,198z"/>
 </g>
</svg>
